<?xml version="1.0" standalone="no"?>
<!DOCTYPE svg PUBLIC "-//W3C//DTD SVG 20010904//EN"
 "http://www.w3.org/TR/2001/REC-SVG-20010904/DTD/svg10.dtd">
<svg version="1.0" xmlns="http://www.w3.org/2000/svg"
 width="700.000000pt" height="700.000000pt" viewBox="0 0 700.000000 700.000000"
 preserveAspectRatio="xMidYMid meet">
<metadata>
Created by potrace 1.14, written by Peter Selinger 2001-2017
</metadata>
<g transform="translate(0.000000,700.000000) scale(0.100000,-0.100000)"
fill="#000000" stroke="none">
<path d="M1 5383 c1 -890 5 -1591 10 -1558 4 33 10 92 14 130 6 70 35 246 56
340 6 28 14 66 19 85 30 138 118 409 170 525 5 11 19 43 31 70 54 125 150 305
244 458 31 50 77 108 82 103 3 -3 -5 -20 -18 -38 -109 -152 -263 -457 -353
-696 -68 -181 -149 -462 -132 -462 5 0 14 27 61 195 14 50 32 106 39 125 8 19
29 73 47 120 56 146 127 298 213 453 218 394 555 782 921 1059 93 70 309 218
319 218 2 0 42 22 88 50 68 39 263 134 393 190 70 30 273 97 405 134 182 50
366 82 560 97 182 13 192 18 30 15 -155 -4 -371 -37 -585 -90 -572 -142 -1108
-438 -1545 -852 -103 -98 -273 -286 -340 -376 -19 -26 -39 -48 -44 -48 -20 0
188 243 321 376 536 535 1250 892 1978 987 17 2 -648 5 -1477 6 l-1508 1 1
-1617z"/>
<path d="M3805 6985 c154 -13 183 -18 330 -46 210 -40 496 -125 642 -190 23
-11 45 -19 48 -19 16 0 304 -144 392 -196 260 -153 563 -388 722 -560 30 -33
84 -90 121 -129 234 -249 492 -666 630 -1015 84 -214 157 -472 194 -690 37
-213 42 -270 37 -400 -2 -57 -17 -37 -26 35 -49 400 -82 557 -177 840 -22 66
-46 134 -53 150 -7 17 -19 46 -27 65 -56 133 -116 250 -242 476 -6 11 -47 73
-91 138 -196 290 -433 547 -710 771 -84 69 -258 190 -330 231 -11 6 -51 30
-88 53 -83 51 -274 146 -382 190 -44 17 -89 36 -100 40 -73 30 -110 43 -245
85 -111 34 -130 39 -135 34 -3 -3 16 -11 42 -18 296 -78 672 -260 963 -464
527 -370 903 -803 1183 -1361 40 -81 158 -376 181 -452 28 -99 1 -53 -42 70
-93 262 -227 523 -402 786 -77 116 -228 304 -214 267 6 -16 4 -18 -9 -13 -25
10 -21 -1 21 -49 47 -52 132 -178 132 -193 0 -6 18 -37 39 -69 91 -133 204
-347 279 -527 121 -290 186 -530 231 -850 20 -144 36 -450 21 -405 -4 14 -8
63 -9 109 -2 130 -34 383 -67 526 -7 33 -20 89 -28 125 -31 140 -102 355 -164
500 -40 94 -56 86 -22 -10 45 -128 11 -89 -76 85 -50 99 -102 199 -117 222
-15 24 -27 45 -27 48 0 12 -139 223 -152 231 -5 3 12 -25 37 -63 25 -37 54
-84 65 -103 11 -19 30 -51 42 -70 80 -133 209 -424 259 -585 39 -124 14 -96
-31 35 -36 106 -194 436 -260 545 -61 100 -160 244 -174 252 -6 3 -6 0 2 -8
15 -16 16 -33 2 -24 -11 7 -82 101 -94 125 -4 8 14 -7 40 -35 47 -50 42 -36
-8 24 -15 18 -32 30 -37 27 -4 -3 -37 27 -71 67 -35 39 -120 127 -189 195 -69
67 -120 122 -114 122 6 0 74 -59 150 -131 l138 -131 -138 136 c-282 278 -479
419 -852 609 -147 75 -338 151 -470 187 -294 81 -443 101 -770 105 l-250 3
187 -8 c103 -4 202 -10 220 -14 18 -3 76 -10 128 -16 132 -13 421 -72 495
-100 11 -4 67 -23 125 -40 58 -18 110 -36 115 -40 6 -4 28 -13 50 -20 70 -22
356 -166 460 -232 122 -76 257 -172 275 -193 18 -21 0 -18 -30 6 -14 11 -52
38 -85 60 -73 49 -32 12 55 -51 35 -24 70 -51 78 -60 8 -8 40 -35 71 -60 115
-93 382 -373 475 -498 11 -16 36 -50 55 -75 36 -49 55 -58 26 -13 -10 14 -13
26 -8 26 15 0 45 -58 32 -62 -8 -3 -2 -19 16 -46 15 -23 26 -45 23 -48 -3 -2
-21 19 -39 47 -140 219 -460 552 -713 743 -296 224 -726 436 -1066 524 -353
92 -508 109 -885 93 -400 -17 -640 -57 -940 -156 -374 -124 -627 -270 -945
-544 -150 -130 -382 -373 -368 -386 3 -3 76 66 164 153 140 139 323 295 456
387 151 106 396 238 563 305 44 17 96 38 115 46 152 61 427 127 685 164 146
22 538 25 693 6 277 -33 551 -99 772 -186 183 -71 441 -202 428 -216 -2 -2
-55 21 -116 51 -121 60 -302 133 -422 171 -66 21 -110 33 -270 74 -58 15 -222
41 -280 46 -30 2 -99 9 -154 14 -133 14 -239 12 -446 -4 -179 -15 -238 -23
-415 -58 -350 -68 -732 -225 -1024 -421 -173 -116 -420 -323 -531 -444 -65
-71 -212 -252 -260 -319 -238 -336 -425 -775 -500 -1169 -6 -33 -16 -79 -21
-103 -16 -74 -39 -343 -39 -467 0 -125 22 -390 40 -485 25 -126 34 -168 51
-235 83 -322 188 -566 369 -856 59 -93 57 -91 172 -239 361 -464 856 -801
1443 -984 243 -75 528 -116 810 -116 148 0 404 21 488 39 23 5 71 15 107 21
158 29 397 106 558 181 46 22 86 39 89 39 3 0 60 30 127 67 121 67 284 172
391 254 32 24 70 53 84 64 15 11 80 65 146 120 167 141 247 205 258 205 17 0
-4 -55 -44 -115 l-41 -60 72 75 c72 76 200 229 255 306 17 23 57 77 89 120
124 164 224 326 323 524 57 113 108 211 114 218 6 8 27 57 45 109 61 170 74
171 74 6 0 -62 4 -103 10 -103 6 0 10 6 10 13 0 23 34 47 50 37 23 -15 27 -12
33 23 5 29 43 227 67 340 5 27 10 61 10 76 0 31 25 113 46 153 8 14 14 43 14
65 0 21 5 56 12 78 l12 40 7 -40 c4 -22 8 -69 9 -105 1 -48 4 -59 10 -40 4 14
13 38 19 55 21 51 31 9 32 -135 1 -105 3 -126 10 -95 24 105 28 122 39 150 9
23 13 26 20 15 6 -9 10 690 10 1823 l0 1837 -1667 -1 c-1392 -2 -1645 -4
-1528 -14z m1680 -1016 c53 -43 72 -69 38 -51 -28 15 -109 91 -98 92 6 0 33
-18 60 -41z m-3496 -2281 c218 -449 398 -819 401 -821 3 -3 183 364 401 816
l396 822 202 3 201 2 0 -1055 0 -1055 -185 0 -185 0 -1 718 0 717 -82 -165
c-45 -91 -201 -414 -347 -717 l-265 -553 -135 3 -134 2 -346 714 -345 713 -3
-716 -2 -716 -188 0 -187 0 0 1048 c1 576 2 1050 3 1055 1 4 93 6 204 5 l202
-3 395 -817z m2865 798 c315 -61 570 -210 722 -422 58 -81 127 -229 154 -329
31 -114 39 -375 16 -498 -40 -211 -115 -356 -261 -503 -148 -149 -298 -233
-518 -289 -156 -39 -249 -45 -719 -45 l-448 0 0 1056 0 1056 483 -5 c403 -3
497 -6 571 -21z"/>
<path d="M4180 3450 l0 -772 273 5 c287 5 351 13 484 61 155 57 284 170 353
308 63 131 82 217 83 388 0 116 -4 163 -21 232 -67 272 -233 442 -508 519 -71
20 -107 23 -371 27 l-293 4 0 -772z"/>
<path d="M4138 6883 c7 -3 16 -2 19 1 4 3 -2 6 -13 5 -11 0 -14 -3 -6 -6z"/>
<path d="M4245 6860 c11 -5 27 -9 35 -9 9 0 8 4 -5 9 -11 5 -27 9 -35 9 -9 0
-8 -4 5 -9z"/>
<path d="M3775 6823 c6 -6 51 -15 100 -22 87 -12 192 -30 303 -53 28 -6 54 -9
57 -6 9 8 -196 50 -340 68 -49 6 -99 14 -110 17 -13 3 -16 2 -10 -4z"/>
<path d="M4295 6724 c74 -21 143 -42 210 -63 33 -11 69 -23 80 -26 18 -6 18
-5 3 5 -16 10 -68 28 -143 50 -133 39 -172 49 -185 49 -8 0 8 -7 35 -15z"/>
<path d="M2230 6720 c-9 -6 -10 -10 -3 -10 6 0 15 5 18 10 8 12 4 12 -15 0z"/>
<path d="M2150 6690 c-13 -8 -13 -10 2 -10 9 0 20 5 23 10 8 13 -5 13 -25 0z"/>
<path d="M2040 6641 c-361 -178 -711 -418 -895 -612 -34 -35 -15 -22 59 42 59
52 123 105 141 119 124 95 160 122 245 177 52 34 100 66 105 71 6 5 15 11 20
13 6 2 54 30 108 62 54 32 145 81 202 109 95 45 120 59 98 57 -5 0 -42 -17
-83 -38z"/>
<path d="M4621 6626 c2 -2 15 -9 29 -15 24 -11 24 -11 6 3 -16 13 -49 24 -35
12z"/>
<path d="M4710 6585 c14 -8 32 -14 40 -14 8 0 0 6 -19 14 -42 19 -54 19 -21 0z"/>
<path d="M4770 6564 c0 -7 92 -45 97 -41 2 2 -19 14 -47 25 -27 11 -50 19 -50
16z"/>
<path d="M4940 6486 c0 -2 7 -7 16 -10 8 -3 12 -2 9 4 -6 10 -25 14 -25 6z"/>
<path d="M5031 6436 c2 -2 15 -9 29 -15 24 -11 24 -11 6 3 -16 13 -49 24 -35
12z"/>
<path d="M5090 6406 c0 -3 9 -10 20 -16 11 -6 20 -8 20 -6 0 3 -9 10 -20 16
-11 6 -20 8 -20 6z"/>
<path d="M4840 6355 c0 -2 27 -18 60 -35 33 -17 60 -28 60 -25 0 2 -27 18 -60
35 -33 17 -60 28 -60 25z"/>
<path d="M5261 6297 c2 -1 13 -9 24 -17 19 -14 19 -14 6 3 -7 9 -18 17 -24 17
-6 0 -8 -1 -6 -3z"/>
<path d="M5017 6259 c7 -7 15 -10 18 -7 3 3 -2 9 -12 12 -14 6 -15 5 -6 -5z"/>
<path d="M5100 6216 c0 -2 8 -10 18 -17 15 -13 16 -12 3 4 -13 16 -21 21 -21
13z"/>
<path d="M5141 6187 c2 -1 13 -9 24 -17 19 -14 19 -14 6 3 -7 9 -18 17 -24 17
-6 0 -8 -1 -6 -3z"/>
<path d="M5202 6144 c10 -10 20 -15 24 -12 3 4 -5 12 -18 18 -22 12 -22 12 -6
-6z"/>
<path d="M5530 6076 c0 -2 8 -10 18 -17 15 -13 16 -12 3 4 -13 16 -21 21 -21
13z"/>
<path d="M5570 6046 c0 -2 8 -10 18 -17 15 -13 16 -12 3 4 -13 16 -21 21 -21
13z"/>
<path d="M5645 5980 c10 -11 20 -20 23 -20 3 0 -3 9 -13 20 -10 11 -20 20 -23
20 -3 0 3 -9 13 -20z"/>
<path d="M5775 5850 c44 -44 82 -80 85 -80 2 0 -31 36 -75 80 -44 44 -82 80
-85 80 -2 0 31 -36 75 -80z"/>
<path d="M5770 5777 c0 -2 15 -16 33 -33 l32 -29 -29 33 c-28 30 -36 37 -36
29z"/>
<path d="M5891 5723 c67 -71 81 -88 149 -178 72 -96 217 -314 227 -343 9 -25
43 -67 43 -53 0 6 -18 41 -40 77 -22 36 -40 67 -40 69 0 7 -107 159 -154 220
-13 17 -41 53 -62 81 -48 63 -140 164 -151 164 -4 0 9 -17 28 -37z"/>
<path d="M5865 5670 c10 -11 20 -20 23 -20 3 0 -3 9 -13 20 -10 11 -20 20 -23
20 -3 0 3 -9 13 -20z"/>
<path d="M5850 5615 c13 -14 26 -25 28 -25 3 0 -5 11 -18 25 -13 14 -26 25
-28 25 -3 0 5 -11 18 -25z"/>
<path d="M5900 5632 c0 -12 19 -26 26 -19 2 2 -2 10 -11 17 -9 8 -15 8 -15 2z"/>
<path d="M5930 5596 c0 -2 8 -10 18 -17 15 -13 16 -12 3 4 -13 16 -21 21 -21
13z"/>
<path d="M5895 5560 c10 -11 20 -20 23 -20 3 0 -3 9 -13 20 -10 11 -20 20 -23
20 -3 0 3 -9 13 -20z"/>
<path d="M5980 5530 c12 -16 24 -30 26 -30 3 0 -4 14 -16 30 -12 17 -24 30
-26 30 -3 0 4 -13 16 -30z"/>
<path d="M6017 5479 c7 -7 15 -10 18 -7 3 3 -2 9 -12 12 -14 6 -15 5 -6 -5z"/>
<path d="M6050 5440 c6 -11 13 -20 16 -20 2 0 0 9 -6 20 -6 11 -13 20 -16 20
-2 0 0 -9 6 -20z"/>
<path d="M6350 5052 c0 -5 7 -15 15 -22 8 -7 15 -18 15 -26 0 -7 4 -15 10 -19
14 -9 -9 52 -26 66 -8 7 -14 7 -14 1z"/>
<path d="M103 4273 c-14 -75 -9 -79 11 -10 18 64 19 67 8 67 -5 0 -13 -26 -19
-57z"/>
<path d="M81 4158 c1 -37 2 -39 9 -18 12 36 12 60 0 60 -5 0 -10 -19 -9 -42z"/>
<path d="M71 4094 c0 -11 3 -14 6 -6 3 7 2 16 -1 19 -3 4 -6 -2 -5 -13z"/>
<path d="M60 4050 c0 -11 5 -20 10 -20 6 0 10 9 10 20 0 11 -4 20 -10 20 -5 0
-10 -9 -10 -20z"/>
<path d="M56 4011 c-4 -7 -5 -15 -2 -18 9 -9 19 4 14 18 -4 11 -6 11 -12 0z"/>
<path d="M52 3940 c0 -14 2 -19 5 -12 2 6 2 18 0 25 -3 6 -5 1 -5 -13z"/>
<path d="M42 3880 c0 -14 2 -19 5 -12 2 6 2 18 0 25 -3 6 -5 1 -5 -13z"/>
<path d="M1 1658 l-1 -1658 1613 1 c1593 1 1610 2 1472 19 -279 36 -427 68
-645 140 -136 45 -449 174 -590 242 -69 33 -127 60 -130 60 -13 -2 -254 150
-350 222 -239 178 -454 392 -650 647 -29 39 -170 249 -170 255 0 2 -15 27 -34
56 -41 64 -135 252 -164 328 -12 30 -48 123 -80 205 -149 377 -214 634 -256
1015 -12 111 -14 -65 -15 -1532z"/>
<path d="M6820 3085 c0 -8 5 -15 10 -15 6 0 10 7 10 15 0 8 -4 15 -10 15 -5 0
-10 -7 -10 -15z"/>
<path d="M6822 3030 c0 -14 2 -19 5 -12 2 6 2 18 0 25 -3 6 -5 1 -5 -13z"/>
<path d="M6811 2984 c0 -11 3 -14 6 -6 3 7 2 16 -1 19 -3 4 -6 -2 -5 -13z"/>
<path d="M6985 2928 c-12 -111 -69 -370 -113 -513 -16 -52 -88 -238 -115 -295
-14 -30 -46 -102 -72 -159 -42 -93 -75 -157 -146 -276 -68 -115 -227 -325
-363 -478 -110 -124 -418 -397 -608 -539 -225 -169 -586 -360 -843 -445 -277
-93 -537 -160 -653 -169 -37 -3 -76 -10 -87 -15 -11 -5 -67 -16 -125 -23 -91
-12 109 -14 1518 -15 l1622 -1 0 1495 c0 822 -2 1495 -4 1495 -2 0 -7 -28 -11
-62z"/>
<path d="M6797 2921 c-4 -19 -5 -36 -2 -39 10 -11 16 7 13 40 l-3 33 -8 -34z"/>
<path d="M6786 2844 c-4 -14 -5 -28 -3 -31 3 -2 8 8 11 23 4 14 5 28 3 31 -3
2 -8 -8 -11 -23z"/>
<path d="M6695 2420 c-4 -12 -5 -24 -2 -27 3 -2 8 5 12 17 4 12 5 24 2 27 -3
2 -8 -5 -12 -17z"/>
<path d="M6667 2423 c-4 -3 -7 -11 -7 -17 0 -6 5 -5 12 2 6 6 9 14 7 17 -3 3
-9 2 -12 -2z"/>
<path d="M6676 2363 c-6 -14 -5 -15 5 -6 7 7 10 15 7 18 -3 3 -9 -2 -12 -12z"/>
<path d="M6646 2292 c-23 -55 -92 -200 -106 -222 -24 -38 -106 -220 -99 -220
4 0 40 64 79 141 75 148 162 349 151 349 -3 0 -15 -21 -25 -48z"/>
<path d="M6386 1774 c-5 -14 -4 -15 9 -4 17 14 19 20 6 20 -5 0 -12 -7 -15
-16z"/>
<path d="M5880 1165 c-79 -79 -142 -146 -139 -149 2 -3 43 33 89 78 143 141
204 205 199 210 -3 3 -70 -60 -149 -139z"/>
<path d="M6014 1148 l-19 -23 23 19 c12 11 22 21 22 23 0 8 -8 2 -26 -19z"/>
<path d="M5950 1075 c-24 -25 -42 -45 -39 -45 3 0 25 20 49 45 24 25 42 45 39
45 -3 0 -25 -20 -49 -45z"/>
<path d="M5855 990 c-21 -22 -36 -42 -34 -45 3 -2 23 13 44 35 21 22 36 42 34
45 -3 2 -23 -13 -44 -35z"/>
<path d="M5694 978 l-19 -23 23 19 c12 11 22 21 22 23 0 8 -8 2 -26 -19z"/>
<path d="M5645 939 c-11 -17 1 -21 15 -4 8 9 8 15 2 15 -6 0 -14 -5 -17 -11z"/>
<path d="M5775 920 c-27 -30 -12 -34 15 -5 13 14 19 25 13 25 -5 0 -18 -9 -28
-20z"/>
<path d="M5595 900 c-3 -5 -2 -10 4 -10 5 0 13 5 16 10 3 6 2 10 -4 10 -5 0
-13 -4 -16 -10z"/>
<path d="M5729 873 c-13 -16 -12 -17 4 -4 16 13 21 21 13 21 -2 0 -10 -8 -17
-17z"/>
<path d="M5690 845 c-8 -9 -8 -15 -2 -15 12 0 26 19 19 26 -2 2 -10 -2 -17
-11z"/>
<path d="M5530 839 c0 -5 5 -7 10 -4 6 3 10 8 10 11 0 2 -4 4 -10 4 -5 0 -10
-5 -10 -11z"/>
<path d="M5500 819 c0 -5 5 -7 10 -4 6 3 10 8 10 11 0 2 -4 4 -10 4 -5 0 -10
-5 -10 -11z"/>
<path d="M5634 798 l-19 -21 28 18 c28 18 33 25 19 25 -5 0 -17 -10 -28 -22z"/>
<path d="M5567 753 c-4 -3 -7 -11 -7 -17 0 -6 5 -5 12 2 6 6 9 14 7 17 -3 3
-9 2 -12 -2z"/>
<path d="M5456 669 c-46 -34 -40 -40 7 -7 18 13 34 24 36 25 2 2 2 5 0 7 -2 3
-22 -9 -43 -25z"/>
<path d="M5348 602 c-30 -18 -39 -39 -10 -23 28 16 58 40 47 40 -5 -1 -22 -8
-37 -17z"/>
<path d="M5279 553 c-13 -15 -12 -15 9 -4 23 12 28 21 13 21 -5 0 -15 -7 -22
-17z"/>
<path d="M5179 493 c-13 -16 -12 -17 4 -4 9 7 17 15 17 17 0 8 -8 3 -21 -13z"/>
</g>
</svg>
